<?xml version="1.0" encoding="UTF-8"?><svg id="Lager_1" xmlns="http://www.w3.org/2000/svg" xmlns:xlink="http://www.w3.org/1999/xlink" viewBox="0 0 512 512"><defs><linearGradient id="Namnlös_övertoning_3" x1="-298.25" y1="1329.36" x2="-191.56" y2="1368.19" gradientTransform="translate(-477.29 1608.36) rotate(36.1) scale(1 -1)" gradientUnits="userSpaceOnUse"><stop offset=".1" stop-color="#d15b9b" stop-opacity=".1"/><stop offset=".35" stop-color="#d15b9b" stop-opacity=".68"/><stop offset="1" stop-color="#d15b9b" stop-opacity=".02"/></linearGradient><linearGradient id="Namnlös_övertoning_3-2" x1="-59.16" y1="1444.94" x2="1.39" y2="1466.98" xlink:href="#Namnlös_övertoning_3"/><linearGradient id="Namnlös_övertoning_3-3" x1="-365.17" y1="1649.8" x2="-197.87" y2="1710.69" xlink:href="#Namnlös_övertoning_3"/></defs><path d="M161.47,424.05c-5.83-3.37-11.54-7.08-17.1-11.14-31.71-23.12-54.22-54.17-66.79-88.45" fill="none" stroke="url(#Namnlös_övertoning_3)" stroke-linecap="round" stroke-linejoin="round" stroke-width="5.32"/><path d="M394.97,390.75c-21.46,22.44-47.46,38.69-75.49,48.36" fill="none" stroke="url(#Namnlös_övertoning_3-2)" stroke-linecap="round" stroke-linejoin="round" stroke-width="5.32"/><path d="M197.69,76.78c56.34-18.33,120.37-10.29,171.9,27.28" fill="none" stroke="url(#Namnlös_övertoning_3-3)" stroke-linecap="round" stroke-linejoin="round" stroke-width="5.32"/><rect x="418.09" y="296.34" width="32.12" height="19.63" rx="3.57" ry="3.57" fill="none" stroke="#646e85" stroke-linecap="round" stroke-linejoin="round" stroke-width="4.89"/><path d="M425.23,296.34v-7.14c0-4.93,3.99-8.92,8.92-8.92s8.92,3.99,8.92,8.92v7.14" fill="none" stroke="#646e85" stroke-linecap="round" stroke-linejoin="round" stroke-width="4.89"/><path d="M434.03,258.16c-3.12,4.68-12.13,14.12-34.3,13.64l.14,38.09c.09.7,2.73,18.41,34.49,35.42,31.63-17.25,34.13-34.98,34.22-35.73l-.15-38.05c-22.11.64-31.25-8.72-34.4-13.38Z" fill="none" stroke="#646e85" stroke-linecap="round" stroke-linejoin="round" stroke-width="7.07"/><path d="M141.34,101.94l-29.2,20.66c-.88.62-2.33.62-3.21,0l-29.2-20.66c-.88-.62-.88-1.65,0-2.27l29.2-20.66c.88-.62,2.33-.62,3.21,0l29.2,20.66c.88.62.88,1.65,0,2.27Z" fill="none" stroke="#626c87" stroke-linecap="round" stroke-linejoin="round" stroke-width="4.37"/><path d="M141.34,120.29l-29.2,20.66c-.88.62-2.33.62-3.21,0l-29.2-20.66" fill="none" stroke="#626c87" stroke-linecap="round" stroke-linejoin="round" stroke-width="4.37"/><line x1="142" y1="100.8" x2="142" y2="120.07" fill="none" stroke="#626c87" stroke-linecap="round" stroke-linejoin="round" stroke-width="4.37"/><line x1="78.97" y1="100.8" x2="78.97" y2="119.61" fill="none" stroke="#626c87" stroke-linecap="round" stroke-linejoin="round" stroke-width="4.37"/><line x1="108.93" y1="122.6" x2="108.93" y2="140.95" fill="none" stroke="#626c87" stroke-linecap="round" stroke-linejoin="round" stroke-width="4.37"/><circle cx="428.49" cy="133.59" r="19.8" fill="none" stroke="#626c87" stroke-linecap="round" stroke-linejoin="round" stroke-width="6"/><path d="M393.18,194.16c0-17.56,15.81-31.8,35.3-31.8s35.3,14.24,35.3,31.8" fill="none" stroke="#626c87" stroke-linecap="round" stroke-linejoin="round" stroke-width="6"/><path d="M278.43,420.46l-32.17,22.52c-.97.68-2.56.68-3.54,0l-32.17-22.52c-.97-.68-.97-1.79,0-2.47l32.17-22.52c.97-.68,2.56-.68,3.54,0l32.17,22.52c.97.68.97,1.79,0,2.47Z" fill="none" stroke="#626c87" stroke-linecap="round" stroke-linejoin="round" stroke-width="6"/><path d="M278.43,440.46l-32.17,22.52c-.97.68-2.56.68-3.54,0l-32.17-22.52" fill="none" stroke="#626c87" stroke-linecap="round" stroke-linejoin="round" stroke-width="6"/><path d="M278.43,459.96l-32.17,22.52c-.97.68-2.56.68-3.54,0l-32.17-22.52" fill="none" stroke="#626c87" stroke-linecap="round" stroke-linejoin="round" stroke-width="6"/><path d="M101.24,201.79h6.88c5.34,0,9.72,4.37,9.72,9.72v6.82" fill="none" stroke="#626c87" stroke-linecap="round" stroke-linejoin="round" stroke-width="3.77"/><path d="M57.73,201.79h-6.88c-5.34,0-9.72,4.37-9.72,9.72v6.82" fill="none" stroke="#626c87" stroke-linecap="round" stroke-linejoin="round" stroke-width="3.77"/><path d="M57.73,274.17h-6.88c-5.34,0-9.72-4.37-9.72-9.72v-6.82" fill="none" stroke="#626c87" stroke-linecap="round" stroke-linejoin="round" stroke-width="3.77"/><path d="M101.24,274.17h6.88c5.34,0,9.72-4.37,9.72-9.72v-6.82" fill="none" stroke="#626c87" stroke-linecap="round" stroke-linejoin="round" stroke-width="3.77"/><circle cx="79.3" cy="238.45" r="21.88" fill="none" stroke="#626c87" stroke-linecap="round" stroke-linejoin="round" stroke-width="3.77"/><line x1="70.01" y1="232.02" x2="88.58" y2="232.02" fill="none" stroke="#626c87" stroke-linecap="round" stroke-linejoin="round" stroke-width="3.77"/><line x1="70.01" y1="238.45" x2="88.58" y2="238.45" fill="none" stroke="#626c87" stroke-linecap="round" stroke-linejoin="round" stroke-width="3.77"/><line x1="70.01" y1="244.88" x2="88.58" y2="244.88" fill="none" stroke="#626c87" stroke-linecap="round" stroke-linejoin="round" stroke-width="3.77"/><path d="M224.23,297.07h-29.12c-8.59,0-15.62-7.03-15.62-15.62v-93.71c0-8.59,7.03-15.62,15.62-15.62h124.95c8.59,0,15.62,7.03,15.62,15.62" fill="none" stroke="#626c87" stroke-linecap="round" stroke-linejoin="round" stroke-width="9"/><circle cx="209.08" cy="201.95" r="8.07" fill="#626c87"/><circle cx="237.96" cy="201.95" r="8.07" fill="#626c87"/><circle cx="266.85" cy="201.95" r="8.07" fill="#626c87"/><path d="M315.58,253.37l-14.69,1.9" fill="none" stroke="#d35b9c" stroke-linecap="round" stroke-miterlimit="10" stroke-width="9"/><path d="M264.63,242.08l-10.04-12.66" fill="none" stroke="#d35b9c" stroke-linecap="round" stroke-miterlimit="10" stroke-width="9"/><path d="M255.85,262.27l-14.58,2.65" fill="none" stroke="#d35b9c" stroke-linecap="round" stroke-miterlimit="10" stroke-width="9"/><path d="M292.11,223.58l-5.72,15.11" fill="none" stroke="#d35b9c" stroke-linecap="round" stroke-miterlimit="10" stroke-width="9"/><path d="M349.5,300.84c3.77,18.6-8.24,36.73-26.84,40.5" fill="none" stroke="#d35b9c" stroke-linecap="round" stroke-miterlimit="10" stroke-width="9"/><path d="M330.1,291.63l-.85-4.21c-.94-4.65-5.48-7.65-10.13-6.71s-7.65,5.48-6.71,10.13" fill="none" stroke="#d35b9c" stroke-linecap="round" stroke-miterlimit="10" stroke-width="9"/><path d="M312.41,290.84l-.85-4.21c-.94-4.65-5.48-7.65-10.13-6.71s-7.65,5.48-6.71,10.13l.85,4.21" fill="none" stroke="#d35b9c" stroke-linecap="round" stroke-miterlimit="10" stroke-width="9"/><path d="M295.15,292.15l-4.7-23.15c-.94-4.65-5.48-7.65-10.13-6.71-4.65.94-7.65,5.48-6.71,10.13l8.54,42.09" fill="none" stroke="#d35b9c" stroke-linecap="round" stroke-miterlimit="10" stroke-width="9"/><path d="M330.1,291.63c-.94-4.65,2.06-9.18,6.71-10.13,4.65-.94,9.18,2.06,10.13,6.71l2.56,12.63c3.77,18.6-8.24,36.73-26.84,40.5l-8.42,1.71c-11.78,2.39-19.67.22-27.21-4.73l-18.23-12.08c-3.82-2.82-4.62-8.2-1.81-12.01,2.62-3.55,7.51-4.54,11.31-2.27l8.91,5.9" fill="none" stroke="#d35b9c" stroke-linecap="round" stroke-miterlimit="10" stroke-width="9"/></svg>