<svg xmlns="http://www.w3.org/2000/svg" viewBox="0 0 109.85 109.85"><defs><linearGradient id="a" x1="59.88" x2="50.01" y1="84.44" y2="35.93" gradientUnits="userSpaceOnUse"><stop offset="0" stop-color="#fff"/><stop offset="1" stop-color="#646e85"/></linearGradient></defs><path fill="url(#a)" d="M25.81 70.54H11.62c-3.19 0-1.44-5 3.72-5.23 5.16-.23 5.92-11.5.08-14.97-5.84-3.47-3.27-19.23 2.5-21.06 5.77-1.83 5.85-5.95 12.75-9.43 6.9-3.48 14.3 7.79 23.57 5.26 9.27-2.53 6.76-10.3 15.16-10.49 8.4-.19 22.26 8.06 24.99 24.9 2.73 16.85-3.18 19.42 2.35 22.89 5.54 3.47 15.35 8.12-10.65 8.12H25.81Z" opacity=".1"/><path fill="#ffbe9d" d="m16.84 56.52.44 5.68c-.35.02-.66 0-.94-.04-.17-.02-.32-.06-.47-.1-.06-.02-.11-.04-.17-.06a2.03 2.03 0 0 1-.26-.11c-.73-.37-1.14-1.01-1.33-1.78-.06-.23-.34-3.36-.36-3.6h3.09Z"/><path fill="#fcac88" d="m16.74 54.82.54 7.38c-.35.02-.66 0-.94-.04-.17-.02-.32-.06-.47-.1-.06-.02-.11-.04-.17-.06-.8-.57-1.33-6.04-1.48-6.98l2.51-.2ZM13.72 98.23c-.05.18-.15.29-.29.36-.18.1-.43.11-.66.11-.4 0-1.27-1.12-1.27-1.12l2.24-12.81 5.54.39-5.56 13.11"/><path fill="#ffbe9d" d="M14.76 95.76c-.48 1.09-.98 2.26-1.04 2.47-.05.18-.15.29-.29.36-.4-.68.05-1.89 1.33-2.83Z"/><path fill="#48a69e" d="M13.73 98.26c.27-.11.01.89.21 1.12s.45.38.71.54l1.55.94c.33.2.67.4.95.68s.5.62.56 1.01c0 .06.01.12-.02.17a.21.21 0 0 1-.13.07c-.62.18-1.28.17-1.93.07-.35-.05-.69-.12-1.03-.2-.37-.08-.73-.17-1.09-.25l-.39-.09-2.44-.58c-.19-.05-.41-.11-.5-.3-.05-.1-.04-.22-.03-.33.09-.84.36-1.67.77-2.39.21-.37.46-.72.58-1.14 0 0 1.81.84 2.23.68Z"/><path fill="#35726a" d="M13.82 98.97c-.28.31-.56.6-.86.88-.06.05.02.15.07.09.31-.29.6-.59.88-.91.05-.06-.04-.13-.09-.07ZM14.41 99.52c-.34.36-.63.77-.86 1.21-.03.07.08.11.11.05.22-.44.5-.83.84-1.19.05-.06-.04-.13-.09-.07ZM15.07 99.98c-.21.31-.37.63-.49.99-.02.07.09.12.11.05.11-.34.27-.66.48-.96.04-.06-.05-.13-.09-.07ZM15.57 100.34c-.15.27-.26.56-.32.86-.02.08.1.09.12.02.06-.3.17-.57.31-.83.04-.07-.07-.11-.11-.05Z"/><path fill="#fff" d="M17.27 101.55c.01.1 0 .2-.05.29-.08.15-.22.25-.37.33-.31.17-.67.23-1.02.19-.44-.05-.84-.27-1.25-.42-1.04-.39-2.18-.41-3.26-.67-.23-.06-.48-.14-.62-.33-.09-.13-.12-.3-.13-.47-.03-.47.08-.94.29-1.35.12-.22.27-.42.38-.65.1-.2.16-.42.13-.64-.13.29-.32.55-.48.83-.42.71-.69 1.51-.79 2.33-.01.11-.02.22.02.32.08.18.3.24.49.29l2.43.54.39.09 1.09.24c.34.07.68.14 1.02.18.64.08 1.3.09 1.92-.09.05-.01.1-.03.13-.07.03-.05.03-.11.02-.16-.04-.29-.18-.56-.37-.79Z"/><path fill="#fcac88" d="M28.86 97.31c-.03.18-.12.31-.24.39-.17.12-.41.17-.64.19-.4.05-1.4-.94-1.4-.94l.32-11.73 5.58-.86-3.6 12.97"/><path fill="#ffbe9d" d="M29.57 94.73c-.33 1.14-.68 2.36-.71 2.58-.03.18-.12.31-.24.39-.49-.63-.2-1.88.95-2.98Z"/><path fill="#48a69e" d="M28.87 97.34c.26-.14.13.88.35 1.08s.5.32.77.44l1.66.73c.35.16.71.32 1.03.55s.58.55.68.93c.02.06.03.12 0 .17-.02.04-.07.07-.12.09-.59.26-1.25.33-1.9.32-.35 0-.7-.03-1.04-.06-.37-.03-.74-.07-1.12-.11l-.4-.04-2.49-.26c-.2-.02-.42-.06-.53-.23a.636.636 0 0 1-.07-.33c-.02-.85.14-1.7.46-2.47.16-.39.37-.78.43-1.2 0 0 1.9.6 2.3.39Z"/><path fill="#35726a" d="M29.05 98.03c-.23.34-.48.67-.74.99-.05.06.04.14.09.08.27-.33.52-.66.76-1.01.04-.06-.06-.12-.1-.06ZM29.71 98.51c-.29.4-.53.84-.69 1.31-.03.07.09.1.11.03.16-.46.39-.89.68-1.28.05-.06-.06-.12-.1-.06ZM30.42 98.87c-.17.33-.29.68-.36 1.04-.01.07.1.11.11.03.07-.36.18-.69.35-1.01.03-.07-.07-.13-.1-.06ZM30.97 99.17c-.12.29-.18.59-.21.9 0 .08.11.08.12 0 .02-.3.09-.59.2-.87.03-.07-.09-.1-.11-.03Z"/><path fill="#fff" d="M32.81 100.14c.03.1.03.2 0 .3-.06.16-.18.28-.32.38-.29.2-.63.32-.99.32-.44 0-.86-.16-1.29-.26-1.08-.25-2.21-.12-3.31-.24-.24-.03-.49-.07-.65-.25-.11-.12-.16-.29-.19-.45-.09-.46-.05-.94.12-1.37.09-.24.21-.46.3-.69.07-.21.1-.44.05-.65-.09.3-.24.59-.37.88a5.91 5.91 0 0 0-.48 2.42c0 .11 0 .23.07.32.1.17.33.2.52.22l2.48.23.4.04c.37.03.74.07 1.11.1.35.03.69.05 1.04.05.65 0 1.3-.08 1.9-.33.05-.02.09-.04.12-.09.03-.05.02-.11 0-.17a1.57 1.57 0 0 0-.47-.74Z"/><path fill="#122a30" d="M18.33 65.06 12.94 84.9l6.78 1.07L23.6 70.3s2.48 6.37 2.74 9.18c.25 2.81-.2 6.76-.2 6.76h6.68s.13-5.65-.84-9.85c-.97-4.2-1.74-10.74-3.32-13.02-1.58-2.28-10.32 1.69-10.32 1.69Z"/><path fill="#d55ba0" d="M30.64 51.76s-.06.03-.09.04c-.28.13-.55.26-.81.38-.03.02-.06.03-.1.05-1.21.57-2.24 1.06-2.52 1.19h-.02v.03c.08.68.11 1.44.13 2.22l.16 2.84.02.14.05.12 2.32 5.44-5.07.73-7.52 1.09.21-2.47-.29-3.8-.25-3.05-3.04.25c0-.06 0-.12-.01-.18v-.16c0-.26 0-.52.03-.79.14-1.62.78-3.37 1.37-4.48.19-.37.73-1.03 1.05-1.3.08-.07.17-.13.25-.19.2-.18.58-.34 1.08-.5 1.41-.43 3.75-.75 5.66-.86.09 0 .18-.01.27-.01.22-.01.43-.02.64-.02.66-.01 1.22 0 1.62.06 0 0 1.15-.22 2.48-.49h.03c.36-.08.73-.16 1.1-.24h.03l1.24 3.96Z"/><path fill="#c6589c" d="M23.94 48.65s-6.33 2.03-7.41 3.96c-1.08 1.94-1.24 3.56-1.24 3.56s-.7.25-1.49.43c0-.26 0-.52.03-.79.14-1.62.78-3.37 1.37-4.48.19-.37.73-1.03 1.05-1.3.08-.07.17-.13.25-.19.2-.18.58-.34 1.08-.5 1.41-.43 3.75-.75 5.66-.86.45.08.7.14.7.14Z"/><path fill="#ffbe9d" d="m34.64 49.93-.05.05s-.02.01-.03.02h-.01c-.23.06-2.1.92-3.92 1.77l-.56-1.8-.66-2.1-.02-.07c1.42-.31 2.74-.63 2.88-.8.3-.36 3.96-6.33 4.31-6.61l.02-.01c.5.11 1.14.29 1.58.61.02.01.04.03.06.05.2.16-2.88 8.09-3.6 8.91Z"/><path fill="#fcac88" d="m38.7 40.42-.45.6c.2.16-2.88 8.09-3.6 8.91l-.05.05s-.02.01-.03.02h-.01c-.23.06-2.1.92-3.92 1.77l-.56-1.8-.66-2.1c.31.35 1.88 2.08 2.2 2.01.36-.08 2.15-.79 3.03-1.21s3.18-7.05 3.18-7.05l-.56-.19s.43-.06.63-.2c.09-.07.19-.15.28-.23.1-.1.2-.2.27-.31.05-.08.14-.18.26-.27v.02Z"/><path fill="#ffbe9d" d="M24.22 45.37c-.09.82-.76 1.01-1.1 1.05-.12.01-.19.01-.19.01l.06.57.14 1.26-3.22.38-.44-2.68-.77-4.77 4.68-1.72s.91 5.19.83 5.9Z"/><path fill="#d32a3b" d="M11.91 56.93s.02-.05.03-.07c-.01.04-.02.06-.03.07Z"/><path fill="#d179af" d="M29.78 64.2s-1.71-3.21-2.95-4.97c-1.23-1.75-1.26-4.45.27-5.78.17 1.54.11 3.52.31 5.2l2.37 5.56ZM23.94 48.65c-.26.06-.53.11-.79.15-1.33.23-2.68.31-4.05.24l-.09-1.14a14.414 14.414 0 0 0 4.84-.4l.09 1.14Z"/><path fill="#c6589c" d="M30.55 51.81c-.28.13-.55.26-.81.38-.03.02-.23.11-.26.12l-1.24-4.27h.03c.36-.08.73-.16 1.1-.24l1.18 4.01ZM16.78 55.76l.06.76-3.04.25c-.02-.31 0-.62.02-.94l2.95-.06Z"/><path fill="#d179af" d="m13.84 56.95-.77.06-.08-.94 3.92-.32.07.94-3.14.26zM28.24 47.79l1.28-.35L31 52.08l-1.06.53-1.7-4.82z"/><path fill="#c6589c" d="m24.71 64.94-7.52 1.09.21-2.47-.29-3.8-.25-3.05s2.34 6.75 3.44 7.14c.84.3 3.29.85 4.41 1.09ZM23.44 48.11c-.15.35-.15.56-.3.7-1.33.23-2.68.31-4.05.24L19 47.91c.92.08 1.82.07 2.71-.02.92.11 1.73.22 1.73.22Z"/><path fill="#263238" d="M24.15 39.99c.17.72-.31 1.69-.54 2.39-.11.32.02.95-.32.96-.41.09-.37-.71-.52-.71-.35-.02-.65.31-.73.65-.08.34.3 1.36.69 1.31 0 0-.15.76.31 1.22 0 0 .91 2.25.29 2.53-.13.06-.25.11-.36.16-1.6.65-2.33.37-2.33.37l-.24-.73-.04.65c-1.62.23-2.37-1.09-2.37-1.09-.13-.32-.14-.63-.11-.88-.06 0-.12-.02-.18-.03-.37-.1-.73-.32-.91-.66-.1-.19-.13-.44 0-.62.12-.16.32-.21.5-.29.49-.22.82-.74.92-1.27.04-.22.05-.44.03-.66-.11-.25-.22-.51-.28-.78-.24-.97.16-2.06.93-2.7.09-.08.19-.14.29-.21-.24-.02-.48-.11-.67-.26-.08-.06-.15-.13-.21-.21-.29-.38-.3-.96 0-1.33.3-.37.9-.47 1.29-.19.38.27.49.81.36 1.26-.04.15-.11.28-.19.41l.45-.21c.56-.26 1.16-.4 1.78-.43.54-.03 1.13 0 1.67.42l-.05-.07c.55-.41 1.09.37.54 1.01Z"/><path fill="#0d1d21" d="M22.97 48.49c-1.6.65-2.33.37-2.33.37l-.24-.73-.04.65c-1.62.23-2.37-1.09-2.37-1.09-.13-.32-.14-.63-.11-.88-.06 0-.12-.02-.18-.03-.37-.1-.73-.32-.91-.66-.1-.19-.13-.44 0-.62.12-.16.32-.21.5-.29.49-.22.82-.74.92-1.27.04-.22.05-.44.03-.66-.11-.25-.22-.51-.28-.78-.24-.97.16-2.06.93-2.7.09-.08.19-.14.29-.21-.24-.02-.48-.11-.67-.26.43.08.93.3.93.3-1.25 1.58-.25 3.03.64 3.55s.43 1.2.46 2.13c.04.93 1.04-.21 1.34.43.3.64 1.04.87 1.12 1.97.02.29 0 .54-.03.77Z"/><path fill="#d55ba0" d="M19.9 39.02c-.04.14-.71.59-1.01.52 0 0 .01.18.09.21s.59-.1.88-.35.04-.38.04-.38Z"/><path fill="#ffbe9d" d="M36.42 40.13s-.05.76.41 1.09c.14.1.66.29 1.04.15.68-.26 1.28-1.03 1.1-1.91-.18-.89-1.12-.61-1.52-.68s.54-1.79.21-2.14c-.29-.3-.9 1.27-1.14 2.77-.04.24-.07.49-.08.72Z"/><circle cx="70.14" cy="45.53" r="27.14" fill="none" stroke="#626c87" stroke-linecap="round" stroke-linejoin="round" stroke-width="2.5"/><circle cx="70.14" cy="45.53" r="23.89" fill="#fff" stroke="#dde1e7" stroke-miterlimit="10" stroke-width=".66"/><g fill="none" stroke="#626c87" stroke-miterlimit="10" stroke-width="1.4"><path d="M68.29 42.95c3.71 0 6.72-3.01 6.72-6.72s-3.01-6.72-6.72-6.72-6.72 3.01-6.72 6.72 3.01 6.72 6.72 6.72ZM87.18 42.62c0-.94-.24-1.85-.72-2.66a5.215 5.215 0 0 0-1.97-1.93c-.82-.45-1.74-.68-2.68-.65-.94.03-1.85.3-2.64.8s-1.43 1.2-1.86 2.03c-.43.83-.62 1.76-.57 2.7.06.93.36 1.84.88 2.61.52.78 1.25 1.4 2.09 1.8v7.98l2.24 2.24 3.73-3.73-2.24-2.24 2.24-2.24-1.85-1.85c.98-.38 1.83-1.05 2.42-1.92.6-.87.92-1.9.92-2.95Zm-5.22 0c-.3 0-.58-.09-.83-.25s-.44-.4-.55-.67c-.11-.27-.14-.57-.08-.86.06-.29.2-.56.41-.76s.47-.35.76-.41c.29-.06.59-.03.86.08s.51.3.67.55.25.53.25.83a1.499 1.499 0 0 1-1.5 1.5ZM74.17 45.96a8.987 8.987 0 0 0-3.64-.78h-4.48c-2.37 0-4.65.94-6.33 2.62a8.954 8.954 0 0 0-2.62 6.33v2.98h19.4v-8.22a7.608 7.608 0 0 1-2.33-2.94Z"/></g></svg>