<svg xmlns="http://www.w3.org/2000/svg" viewBox="0 0 109.85 109.85"><defs><linearGradient id="a" x1="61.21" x2="50.9" y1="89.45" y2="38.76" gradientUnits="userSpaceOnUse"><stop offset="0" stop-color="#fff"/><stop offset="1" stop-color="#646e85"/></linearGradient></defs><path fill="url(#a)" d="M25.61 74.92H10.79c-3.33 0-1.51-5.23 3.88-5.46s6.18-12.01.08-15.64c-6.1-3.63-3.42-20.09 2.61-22.01 6.03-1.91 6.11-6.22 13.32-9.85 7.21-3.64 14.94 8.14 24.63 5.5S62.38 16.7 71.15 16.5c8.77-.19 23.26 8.42 26.11 26.02 2.85 17.6-3.32 20.29 2.46 23.91 5.78 3.62 16.04 8.48-11.13 8.48H25.61Z" opacity=".1"/><path fill="#2b303c" d="m48.62 74.95.282-62.05a5.392 5.392 0 0 1 5.415-5.365l24.75.112a5.392 5.392 0 0 1 5.365 5.414l-.282 62.05a5.392 5.392 0 0 1-5.414 5.365l-24.75-.112a5.392 5.392 0 0 1-5.365-5.415Z"/><path fill="#fff" d="m78.9 9.82-4.8-.02c-.64 0-1.17.54-1.17 1.21v.87c0 .67-.53 1.22-1.17 1.21l-9.35-.04c-.64 0-1.16-.55-1.16-1.22v-.87c0-.67-.51-1.22-1.16-1.22H58.4l-4.2-.03c-2.09 0-3.78 1.67-3.79 3.76l-.26 60.57c0 2.09 1.67 3.78 3.76 3.79l24.7.11c2.09 0 3.78-1.67 3.79-3.76l.26-60.57c0-2.08-1.67-3.78-3.76-3.79Z"/><circle cx="66.57" cy="31.82" r="5.07" fill="#1877f2" transform="rotate(-9 66.524 31.827)"/><g fill="#fff"><path d="M66.56 28.42c-.88 0-1.59.72-1.59 1.6a1.593 1.593 0 0 0 1.58 1.6c.49 0 .96-.24 1.26-.61.22-.27.34-.61.34-.99 0-.88-.71-1.6-1.6-1.6ZM63.75 33.29v1.18c0 1.01 5.64 1.01 5.64 0v-1.18c-.22-1.61-5.18-1.68-5.64 0Z"/></g><g fill="#2b303c"><path d="M75.99 33.01H57.14c-.46 0-.84.38-.84.84v.39c0 .46.38.84.84.84h.97l1.46 17.59c.05.6.56 1.07 1.16 1.07h12.25c.62 0 1.14-.49 1.17-1.11l.89-17.55h.95c.46 0 .84-.38.84-.84v-.39c0-.46-.38-.84-.84-.84Z"/><g stroke="#4c5463" stroke-miterlimit="10" stroke-width=".59"><rect width=".48" height="14.82" x="66.33" y="37.36" rx=".23" ry=".23"/><path d="M63.88 52.17h-.01c-.13.02-.25-.06-.27-.17l-2.7-14.16c-.02-.12.06-.23.19-.25h.01c.13-.02.25.06.27.17l2.7 14.16c.02.12-.06.23-.19.25ZM72.04 37.58h-.01c-.13-.02-.25.06-.27.17l-2.7 14.16c-.02.12.06.23.19.25h.01c.13.02.25-.06.27-.17l2.7-14.16c.02-.12-.06-.23-.19-.25Z"/></g></g><path fill="#ffbe9d" d="m32.6 55.62.44 5.68c-.35.02-.66 0-.94-.04-.17-.02-.32-.06-.47-.1-.06-.02-.11-.04-.17-.06a2.03 2.03 0 0 1-.26-.11c-.73-.37-1.14-1.01-1.33-1.78-.06-.23-.34-3.36-.36-3.6h3.09Z"/><path fill="#fcac88" d="m32.49 53.92.54 7.38c-.35.02-.66 0-.94-.04-.17-.02-.32-.06-.47-.1-.06-.02-.11-.04-.17-.06-.8-.57-1.33-6.04-1.48-6.98l2.51-.2ZM29.48 97.33c-.05.18-.15.29-.29.36-.18.1-.43.11-.66.11-.4 0-1.27-1.12-1.27-1.12l2.24-12.81 5.54.39-5.56 13.11"/><path fill="#ffbe9d" d="M30.51 94.86c-.48 1.09-.98 2.26-1.04 2.47-.05.18-.15.29-.29.36-.4-.68.05-1.89 1.33-2.83Z"/><path fill="#48a69e" d="M29.49 97.36c.27-.11.01.89.21 1.12s.45.38.71.54l1.55.94c.33.2.67.4.95.68s.5.62.56 1.01c0 .06.01.12-.02.17a.21.21 0 0 1-.13.07c-.62.18-1.28.17-1.93.07-.35-.05-.69-.12-1.03-.2-.37-.08-.73-.17-1.09-.25l-.39-.09-2.44-.58c-.19-.05-.41-.11-.5-.3-.05-.1-.04-.22-.03-.33.09-.84.36-1.67.77-2.39.21-.37.46-.72.58-1.14 0 0 1.81.84 2.23.68Z"/><path fill="#35726a" d="M29.58 98.07c-.28.31-.56.6-.86.88-.06.05.02.15.07.09.31-.29.6-.59.88-.91.05-.06-.04-.13-.09-.07ZM30.16 98.62c-.34.36-.63.77-.86 1.21-.03.07.08.11.11.05.22-.44.5-.83.84-1.19.05-.06-.04-.13-.09-.07ZM30.83 99.08c-.21.31-.37.63-.49.99-.02.07.09.12.11.05.11-.34.27-.66.48-.96.04-.06-.05-.13-.09-.07ZM31.33 99.45c-.15.27-.26.56-.32.86-.02.08.1.09.12.02.06-.3.17-.57.31-.83.04-.07-.07-.11-.11-.05Z"/><path fill="#fff" d="M33.02 100.65c.01.1 0 .2-.05.29-.08.15-.22.25-.37.33-.31.17-.67.23-1.02.19-.44-.05-.84-.27-1.25-.42-1.04-.39-2.18-.41-3.26-.67-.23-.06-.48-.14-.62-.33-.09-.13-.12-.3-.13-.47-.03-.47.08-.94.29-1.35.12-.22.27-.42.38-.65.1-.2.16-.42.13-.64-.13.29-.32.55-.48.83-.42.71-.69 1.51-.79 2.33-.01.11-.02.22.02.32.08.18.3.24.49.29l2.43.54.39.09 1.09.24c.34.07.68.14 1.02.18.64.08 1.3.09 1.92-.09.05-.01.1-.03.13-.07.03-.05.03-.11.02-.16-.04-.29-.18-.56-.37-.79Z"/><path fill="#fcac88" d="M44.61 96.41c-.03.18-.12.31-.24.39-.17.12-.41.17-.64.19-.4.05-1.4-.94-1.4-.94l.32-11.73 5.58-.86-3.6 12.97"/><path fill="#ffbe9d" d="M45.32 93.83c-.33 1.14-.68 2.36-.71 2.58-.03.18-.12.31-.24.39-.49-.63-.2-1.88.95-2.98Z"/><path fill="#48a69e" d="M44.63 96.44c.26-.14.13.88.35 1.08s.5.32.77.44l1.66.73c.35.16.71.32 1.03.55s.58.55.68.93c.02.06.03.12 0 .17-.02.04-.07.07-.12.09-.59.26-1.25.33-1.9.32-.35 0-.7-.03-1.04-.06-.37-.03-.74-.07-1.12-.11l-.4-.04-2.49-.26c-.2-.02-.42-.06-.53-.23a.636.636 0 0 1-.07-.33c-.02-.85.14-1.7.46-2.47.16-.39.37-.78.43-1.2 0 0 1.9.6 2.3.39Z"/><path fill="#35726a" d="M44.81 97.13c-.23.34-.48.67-.74.99-.05.06.04.14.09.08.27-.33.52-.66.76-1.01.04-.06-.06-.12-.1-.06ZM45.46 97.61c-.29.4-.53.84-.69 1.31-.03.07.09.1.11.03.16-.46.39-.89.68-1.28.05-.06-.06-.12-.1-.06ZM46.18 97.97c-.17.33-.29.68-.36 1.04-.01.07.1.11.11.03.07-.36.18-.69.35-1.01.03-.07-.07-.13-.1-.06ZM46.72 98.27c-.12.29-.18.59-.21.9 0 .08.11.08.12 0 .02-.3.09-.59.2-.87.03-.07-.09-.1-.11-.03Z"/><path fill="#fff" d="M48.56 99.24c.03.1.03.2 0 .3-.06.16-.18.28-.32.38-.29.2-.63.32-.99.32-.44 0-.86-.16-1.29-.26-1.08-.25-2.21-.12-3.31-.24-.24-.03-.49-.07-.65-.25-.11-.12-.16-.29-.19-.45-.09-.46-.05-.94.12-1.37.09-.24.21-.46.3-.69.07-.21.1-.44.05-.65-.09.3-.24.59-.37.88a5.91 5.91 0 0 0-.48 2.42c0 .11 0 .23.07.32.1.17.33.2.52.22l2.48.23.4.04c.37.03.74.07 1.11.1.35.03.69.05 1.04.05.65 0 1.3-.08 1.9-.33.05-.02.09-.04.12-.09.03-.05.02-.11 0-.17a1.57 1.57 0 0 0-.47-.74Z"/><path fill="#122a30" d="M34.08 64.16 28.69 84l6.78 1.07 3.88-15.67s2.48 6.37 2.74 9.18c.25 2.81-.2 6.76-.2 6.76h6.68s.13-5.65-.84-9.85-1.74-10.74-3.32-13.02c-1.58-2.28-10.32 1.69-10.32 1.69Z"/><path fill="#d55ba0" d="M46.39 50.86s-.06.03-.09.04c-.28.13-.55.26-.81.38-.03.02-.06.03-.1.05-1.21.57-2.24 1.06-2.52 1.19h-.02v.03c.08.68.11 1.44.13 2.22l.16 2.84.02.14.05.12 2.32 5.44-5.07.73-7.52 1.09.21-2.47-.29-3.8-.25-3.05-3.04.25c0-.06 0-.12-.01-.18v-.16c0-.26 0-.52.03-.79.14-1.62.78-3.37 1.37-4.48.19-.37.73-1.03 1.05-1.3.08-.07.17-.13.25-.19.2-.18.58-.34 1.08-.5 1.41-.43 3.75-.75 5.66-.86.09 0 .18-.01.27-.01.22-.01.43-.02.64-.02.66-.01 1.22 0 1.62.06 0 0 1.15-.22 2.48-.49h.03c.36-.08.73-.16 1.1-.24h.03l1.24 3.96Z"/><path fill="#c6589c" d="M39.69 47.75s-6.33 2.03-7.41 3.96c-1.08 1.94-1.24 3.56-1.24 3.56s-.7.25-1.49.43c0-.26 0-.52.03-.79.14-1.62.78-3.37 1.37-4.48.19-.37.73-1.03 1.05-1.3.08-.07.17-.13.25-.19.2-.18.58-.34 1.08-.5 1.41-.43 3.75-.75 5.66-.86.45.08.7.14.7.14Z"/><path fill="#ffbe9d" d="m50.4 49.03-.05.05s-.02.01-.03.02h-.01c-.23.06-2.1.92-3.92 1.77l-.56-1.8-.66-2.1-.02-.07c1.42-.31 2.74-.63 2.88-.8.3-.36 3.96-6.33 4.31-6.61l.02-.01c.5.11 1.14.29 1.58.61.02.01.04.03.06.05.2.16-2.88 8.09-3.6 8.91Z"/><path fill="#fcac88" d="m54.45 39.53-.45.6c.2.16-2.88 8.09-3.6 8.91l-.05.05s-.02.01-.03.02h-.01c-.23.06-2.1.92-3.92 1.77l-.56-1.8-.66-2.1c.31.35 1.88 2.08 2.2 2.01.36-.08 2.15-.79 3.03-1.21s3.18-7.05 3.18-7.05l-.56-.19s.43-.06.63-.2c.09-.07.19-.15.28-.23.1-.1.2-.2.27-.31.05-.08.14-.18.26-.27v.02Z"/><path fill="#ffbe9d" d="M39.97 44.47c-.09.82-.76 1.01-1.1 1.05-.12.01-.19.01-.19.01l.06.57.14 1.26-3.22.38-.44-2.68-.77-4.77 4.68-1.72s.91 5.19.83 5.9Z"/><path fill="#d32a3b" d="M27.67 56.03s.02-.05.03-.07c-.01.04-.02.06-.03.07Z"/><path fill="#d179af" d="M45.53 63.3s-1.71-3.21-2.95-4.97c-1.23-1.75-1.26-4.45.27-5.78.17 1.54.11 3.52.31 5.2l2.37 5.56ZM39.69 47.75c-.26.06-.53.11-.79.15-1.33.23-2.68.31-4.05.24L34.76 47a14.414 14.414 0 0 0 4.84-.4l.09 1.14Z"/><path fill="#c6589c" d="M46.3 50.91c-.28.13-.55.26-.81.38-.03.02-.23.11-.26.12l-1.24-4.27h.03c.36-.08.73-.16 1.1-.24l1.18 4.01ZM32.54 54.86l.06.76-3.04.25c-.02-.31 0-.62.02-.94l2.95-.06Z"/><path fill="#d179af" d="m29.6 56.05-.78.06-.08-.94 3.92-.32.07.94-3.13.26zM44 46.89l1.28-.35 1.47 4.64-1.05.53-1.7-4.82z"/><path fill="#c6589c" d="m40.46 64.04-7.52 1.09.21-2.47-.29-3.8-.25-3.05s2.34 6.75 3.44 7.14c.84.3 3.29.85 4.41 1.09ZM39.2 47.21c-.15.35-.15.56-.3.7-1.33.23-2.68.31-4.05.24l-.09-1.14c.92.08 1.82.07 2.71-.02.92.11 1.73.22 1.73.22Z"/><path fill="#263238" d="M39.91 39.09c.17.72-.31 1.69-.54 2.39-.11.32.02.95-.32.96-.41.09-.37-.71-.52-.71-.35-.02-.65.31-.73.65-.08.34.3 1.36.69 1.31 0 0-.15.76.31 1.22 0 0 .91 2.25.29 2.53-.13.06-.25.11-.36.16-1.6.65-2.33.37-2.33.37l-.24-.73-.04.65c-1.62.23-2.37-1.09-2.37-1.09-.13-.32-.14-.63-.11-.88-.06 0-.12-.02-.18-.03-.37-.1-.73-.32-.91-.66-.1-.19-.13-.44 0-.62.12-.16.32-.21.5-.29.49-.22.82-.74.92-1.27.04-.22.05-.44.03-.66-.11-.25-.22-.51-.28-.78-.24-.97.16-2.06.93-2.7.09-.08.19-.14.29-.21-.24-.02-.48-.11-.67-.26-.08-.06-.15-.13-.21-.21-.29-.38-.3-.96 0-1.33.3-.37.9-.47 1.29-.19.38.27.49.81.36 1.26-.04.15-.11.28-.19.41l.45-.21c.56-.26 1.16-.4 1.78-.43.54-.03 1.13 0 1.67.42l-.05-.07c.55-.41 1.09.37.54 1.01Z"/><path fill="#0d1d21" d="M38.73 47.59c-1.6.65-2.33.37-2.33.37l-.24-.73-.04.65c-1.62.23-2.37-1.09-2.37-1.09-.13-.32-.14-.63-.11-.88-.06 0-.12-.02-.18-.03-.37-.1-.73-.32-.91-.66-.1-.19-.13-.44 0-.62.12-.16.32-.21.5-.29.49-.22.82-.74.92-1.27.04-.22.05-.44.03-.66-.11-.25-.22-.51-.28-.78-.24-.97.16-2.06.93-2.7.09-.08.19-.14.29-.21-.24-.02-.48-.11-.67-.26.43.08.93.3.93.3-1.25 1.58-.25 3.03.64 3.55s.43 1.2.46 2.13c.04.93 1.04-.21 1.34.43.3.64 1.04.87 1.12 1.97.02.29 0 .54-.03.77Z"/><path fill="#d55ba0" d="M35.65 38.13c-.04.14-.71.59-1.01.52 0 0 .01.18.09.21s.59-.1.88-.35.04-.38.04-.38Z"/><path fill="#ffbe9d" d="M52.17 39.23s-.05.76.41 1.09c.14.1.66.29 1.04.15.68-.26 1.28-1.03 1.1-1.91-.18-.89-1.12-.61-1.52-.68s.54-1.79.21-2.14c-.29-.3-.9 1.27-1.14 2.77-.04.24-.07.49-.08.72Z"/><circle cx="66.57" cy="50.3" r="8.33" fill="#fff"/><path fill="#2b303c" d="M66.57 42.46c4.32 0 7.83 3.51 7.83 7.83s-3.51 7.83-7.83 7.83-7.83-3.51-7.83-7.83 3.51-7.83 7.83-7.83m0-1c-4.88 0-8.83 3.96-8.83 8.83s3.96 8.83 8.83 8.83 8.83-3.96 8.83-8.83-3.96-8.83-8.83-8.83Z"/><path fill="#48a69e" d="m62.62 50.88.83-.83 2.08 2.08 4.58-4.58.83.83-5.41 5.41-2.91-2.91z"/></svg>