<?xml version="1.0" encoding="UTF-8"?><svg id="Layer_1" xmlns="http://www.w3.org/2000/svg" xmlns:xlink="http://www.w3.org/1999/xlink" viewBox="0 0 109.85 109.85"><defs><linearGradient id="linear-gradient" x1="59.88" y1="84.44" x2="50.01" y2="35.93" gradientTransform="matrix(1, 0, 0, 1, 0, 0)" gradientUnits="userSpaceOnUse"><stop offset="0" stop-color="#fff"/><stop offset="1" stop-color="#646e85"/></linearGradient></defs><g opacity=".1"><path d="M25.81,70.54H11.62c-3.19,0-1.44-5,3.72-5.23,5.16-.23,5.92-11.5,.08-14.97-5.84-3.47-3.27-19.23,2.5-21.06,5.77-1.83,5.85-5.95,12.75-9.43,6.9-3.48,14.3,7.79,23.57,5.26,9.27-2.53,6.76-10.3,15.16-10.49,8.4-.19,22.26,8.06,24.99,24.9,2.73,16.85-3.18,19.42,2.35,22.89,5.54,3.47,15.35,8.12-10.65,8.12s-60.28,0-60.28,0Z" fill="url(#linear-gradient)"/></g><g><circle cx="68.82" cy="43.84" r="27.14" fill="none" stroke="#626c87" stroke-linecap="round" stroke-linejoin="round" stroke-width="2.5"/><circle cx="68.82" cy="43.84" r="23.89" fill="#fff" stroke="#dde1e7" stroke-miterlimit="10" stroke-width=".66"/><g><path d="M85.94,48.31h-9.65c-1.59,0-2.88-1.29-2.88-2.88v-.06c0-1.59,1.29-2.88,2.88-2.88h9.65v5.83Z" fill="#d55ba0"/><circle cx="76.3" cy="45.39" r="1.17" fill="#fff"/><g><g><path d="M61.28,47.26c-2.8,0-5.08-2.27-5.08-5.08s2.27-5.08,5.08-5.08c2.8,0,5.08,2.27,5.08,5.08,0,2.8-2.27,5.08-5.08,5.08" fill="none" stroke="#626c87" stroke-linecap="round" stroke-linejoin="round" stroke-width="1.71"/><path d="M52.23,58.5c0-4.5,4.05-8.15,9.05-8.15,5,0,9.05,3.65,9.05,8.15" fill="none" stroke="#626c87" stroke-linecap="round" stroke-linejoin="round" stroke-width="1.71"/></g><g><path d="M56.96,31.73v-3.13c0-.78,.64-1.42,1.42-1.42h21.29v5.68h4.26c.78,0,1.42,.64,1.42,1.42v17.04c0,.78-.64,1.42-1.42,1.42h-9.99" fill="none" stroke="#626c87" stroke-linecap="round" stroke-linejoin="round" stroke-width="1.71"/><line x1="79.68" y1="32.86" x2="63.96" y2="32.86" fill="none" stroke="#626c87" stroke-linecap="round" stroke-linejoin="round" stroke-width="1.71"/></g><line x1="79.76" y1="38.61" x2="69.67" y2="38.61" fill="none" stroke="#626c87" stroke-linecap="round" stroke-linejoin="round" stroke-width="1.93"/></g></g></g><g><g><g><path d="M37.52,57.26s-.04,.02-.06,.02c-.01,0-.02,0-.03,0h-.01c-.21-.05-3.51-.36-5.31-.42l.28-1.68,.33-1.96v-.06c1.28,.33,3.91,.84,4.09,.77,.39-.16,5.78-3.49,6.18-3.57,.01,0,.02,0,.02,0,.35,.29,.81,.7,1.02,1.13,.01,.02,.02,.04,.03,.06,.1,.21-5.63,5.35-6.54,5.71Z" fill="#845c4f"/><path d="M44.67,51.25l-.61,.3c.1,.21-5.63,5.35-6.54,5.71-.02,0-.04,.02-.06,.02-.01,0-.02,0-.03,0h-.01c-.21-.05-3.51-.36-5.31-.42l.28-1.68,.33-1.96c.11,.41,2.1,2.68,2.4,2.75,.33,.08,2.06,.24,2.93,.26s5.44-4.39,5.44-4.39l-.37-.38s.37,.13,.59,.09c.1-.02,.21-.04,.32-.07,.12-.04,.24-.08,.34-.14,.08-.04,.19-.09,.32-.11h-.02Z" fill="#755143"/></g><path d="M42.96,50.08s-.35,.59-.12,1.04c.07,.14,.42,.51,.77,.55,.66,.07,1.45-.31,1.67-1.09,.22-.79-.66-.95-.95-1.17s1.16-1.22,1.04-1.64c-.11-.36-1.25,.65-2.05,1.77-.13,.18-.25,.37-.36,.55Z" fill="#845c4f"/></g><path d="M27.54,49.15c-.53,.03-.55,.42-1.12,.34s-1.24,.12-1.79,0-.18-1.83,.39-2.16,2.52,1.83,2.52,1.83Z" fill="#1e272b"/><path d="M26.77,48.33c0,.3,.13,.61,.36,.81,.23,.2,.54,.3,.85,.27,.41-.05,.82-.33,1.2-.16,.31,.13,.48,.53,.81,.55,.19,.02,.36-.09,.51-.2,.15-.1,.3-.2,.45-.31,.14-.09,.28-.19,.42-.28,.38-.26,.77-.53,.96-.95,.21-.47,.07-1.09-.35-1.4-.08-.06-.17-.11-.27-.16-.25-.12-.51-.23-.64-.47-.27-.49,.23-1.19-.1-1.64-.23-.32-.74-.32-.97-.63-.19-.26-.12-.62-.11-.94,.03-.49-.09-.99-.34-1.41,0,0-2.72,.43-2.86,2.78-.14,2.35,.09,4.13,.09,4.13Z" fill="#1e272b"/><g><path d="M28.11,82.36l1.75,8.58,.68,3.36h0s.63,.35,1.1,.48c.17,.05,.32,.07,.42,.03h0c.2-.09,.41-.19,.53-.35,.09-.1,.14-.23,.12-.39,0-.01,0-.02,0-.04-.03-.21-.03-1.41-.02-2.54,0-.15,0-.42,0-.78,0-1.2,0-3.38,.01-5.19,0-1.65,0-2.99,0-2.99l-1.69-.06-2.92-.1Z" fill="#755143"/><path d="M31.29,90.71c.11,1.63,.48,3.14,.77,4.09h0c.2-.09,.41-.19,.53-.35,.09-.1,.14-.23,.12-.39,0-.01,0-.02,0-.04-.03-.21-.03-1.41-.02-2.54,0-.15,0-.42,0-.78,0-1.2,0-3.38,.01-5.19-.64,1.03-1.59,2.76-1.42,5.19Z" fill="#845c4f"/><path d="M29.86,90.94l.68,3.36h0s.63,.35,1.1,.48c.17,.05,.32,.07,.42,.03h0c.2-.09,.41-.19,.53-.35,.09-.1,.14-.23,.12-.39,0-.01,0-.02,0-.04-.03-.21-.03-1.41-.02-2.54,0-.15,0-.42,0-.78-.37,.1-.84,.15-1.31,.19-.03,0-.05,0-.08,0-.53,.03-1.06,.04-1.45,.04Z" fill="#e8e8e8"/><path d="M31.31,90.91c.12,1.55,.48,2.98,.75,3.9h0c.2-.09,.41-.19,.53-.35,.09-.1,.14-.23,.12-.39,0-.01,0-.02,0-.04-.03-.21-.03-1.41-.02-2.54,0-.15,0-.42,0-.78-.37,.1-.84,.15-1.31,.19-.03,0-.05,0-.08,0Z" fill="#fff"/><g><path d="M30.68,97.87c.02,.06,.04,.13,.07,.19h0s.04,.07,.07,.09c.14,.13,.36,.11,.54,.07,.78-.14,1.56-.27,2.34-.41,.12-.02,.25-.04,.37-.07l.37-.07c.23-.04,.45-.08,.67-.12,.33-.06,.65-.13,.97-.22,.59-.16,1.18-.4,1.65-.79,.04-.03,.07-.06,.08-.11,.01-.05-.01-.11-.04-.15-.04-.07-.09-.13-.14-.19-.15-.17-.34-.3-.55-.4-.06-.03-.11-.05-.17-.07-.34-.13-.71-.18-1.08-.23-.21-.03-.42-.06-.62-.09l-.11-.02-.48-.07-.11-.02c-.12-.02-.25-.03-.37-.05-.1-.01-.2-.03-.3-.05-.04,0-.07-.01-.11-.02-.14-.03-.28-.07-.41-.13-.06-.03-.12-.11-.17-.21-.02-.04-.04-.09-.06-.13h0c-.13-.31-.24-.68-.37-.56h-.02c-.16,.15-.65,.2-1.12,.23-.53,.03-1.03,.01-1.06,.01h0c.01,.1,.02,.2,.02,.3,0,.3-.06,.6-.1,.91-.09,.79-.02,1.6,.22,2.37Z" fill="#d55ba0"/><path d="M33.08,94.64c-.13,.37-.27,.74-.42,1.09-.03,.07,.07,.12,.1,.05,.16-.37,.3-.74,.43-1.12,.02-.07-.09-.1-.11-.03h0Z" fill="#2b303c"/><path d="M33.8,94.91c-.17,.44-.26,.91-.29,1.38,0,.07,.11,.07,.11,0,.03-.46,.13-.91,.29-1.35,.03-.07-.08-.09-.11-.03h0Z" fill="#2b303c"/><path d="M34.55,95.06c-.07,.35-.09,.69-.06,1.04,0,.07,.12,.07,.11,0-.03-.34-.01-.68,.06-1.02,.01-.07-.1-.1-.11-.03h0Z" fill="#2b303c"/><path d="M35.13,95.19c-.03,.29-.02,.58,.04,.87,.01,.07,.12,.04,.11-.03-.06-.28-.07-.56-.04-.84,0-.07-.11-.07-.11,0h0Z" fill="#2b303c"/><path d="M30.62,97.8c.03,.1,.06,.2,.13,.27h0c.14,.14,.35,.11,.54,.07,.77-.14,1.55-.29,2.32-.43,.12-.02,.25-.05,.37-.07,.08-.02,.16-.03,.25-.05,.26-.05,.53-.1,.79-.15,.32-.07,.64-.14,.96-.22,.59-.17,1.17-.41,1.65-.8,.04-.03,.07-.06,.09-.11,.01-.05-.01-.11-.04-.15,0-.02-.02-.03-.03-.05-.14-.22-.36-.38-.59-.5,.02,.03,.03,.07,.05,.1,.02,.06,.03,.12,.02,.17-.01,.16-.1,.3-.19,.43-.21,.26-.5,.45-.82,.55-.4,.12-.83,.08-1.25,.1-.48,.02-.95,.12-1.41,.24-.56,.14-1.11,.31-1.68,.4-.22,.04-.47,.06-.66-.06-.13-.08-.22-.22-.29-.36-.2-.4-.29-.85-.25-1.28,.02-.24,.08-.47,.09-.71,.01-.2-.02-.4-.11-.58,0-.01-.01-.02-.02-.03,0,.3-.07,.6-.11,.9-.1,.78-.04,1.58,.19,2.33Z" fill="#c3cde0"/></g></g><g><path d="M21.3,80.96l-1.59,8.61-.62,3.37h0s.46,.56,.84,.85c.14,.11,.27,.18,.37,.18h0c.22,0,.45-.02,.62-.12,.12-.06,.21-.16,.26-.31,0-.01,0-.02,.01-.04,.05-.2,.5-1.32,.93-2.37,.06-.14,.16-.39,.29-.72,.45-1.11,1.27-3.13,1.95-4.81,.62-1.53,1.12-2.77,1.12-2.77l-1.54-.69-2.67-1.19Z" fill="#755143"/><path d="M21.12,89.89c-.51,1.55-.72,3.09-.82,4.08h0c.22,0,.45-.02,.62-.12,.12-.06,.21-.16,.26-.31,0-.01,0-.02,.01-.04,.05-.2,.5-1.32,.93-2.37,.06-.14,.16-.39,.29-.72,.45-1.11,1.27-3.13,1.95-4.81-.98,.71-2.51,1.97-3.26,4.28Z" fill="#845c4f"/><path d="M19.71,89.57l-.62,3.37h0s.46,.56,.84,.85c.14,.11,.27,.18,.37,.18h0c.22,0,.45-.02,.62-.12,.12-.06,.21-.16,.26-.31,0-.01,0-.02,.01-.04,.05-.2,.5-1.32,.93-2.37,.06-.14,.16-.39,.29-.72-.38-.05-.84-.17-1.29-.32-.03,0-.05-.02-.08-.03-.51-.17-1-.36-1.36-.51Z" fill="#e8e8e8"/><path d="M21.06,90.07c-.46,1.49-.67,2.95-.76,3.89h0c.22,0,.45-.02,.62-.12,.12-.06,.21-.16,.26-.31,0-.01,0-.02,.01-.04,.05-.2,.5-1.32,.93-2.37,.06-.14,.16-.39,.29-.72-.38-.05-.84-.17-1.29-.32-.03,0-.05-.02-.08-.03Z" fill="#fff"/><g><path d="M17.88,96.3c0,.07-.01,.13,0,.2h0s.02,.08,.03,.12c.08,.17,.29,.23,.48,.27,.77,.16,1.55,.33,2.32,.49,.12,.03,.25,.05,.37,.08l.37,.08c.22,.05,.45,.09,.67,.14,.32,.06,.65,.12,.98,.16,.61,.07,1.24,.07,1.83-.11,.05-.01,.09-.03,.12-.07,.03-.04,.03-.1,.02-.16-.01-.08-.03-.16-.06-.23-.07-.21-.2-.41-.36-.58-.04-.05-.09-.09-.13-.13-.27-.25-.59-.44-.91-.62-.18-.1-.36-.21-.55-.31l-.1-.06-.42-.24-.1-.06c-.11-.06-.22-.12-.33-.19-.09-.05-.17-.1-.26-.15-.03-.02-.06-.04-.1-.06-.12-.08-.23-.17-.33-.28-.05-.05-.07-.14-.08-.26,0-.05,0-.1,0-.15h0c0-.33,.04-.72-.13-.65h-.02c-.2,.07-.67-.06-1.12-.21-.5-.17-.96-.37-.98-.38h0c-.03,.1-.06,.19-.1,.28-.12,.28-.28,.54-.43,.8-.38,.7-.62,1.48-.69,2.28Z" fill="#d55ba0"/><path d="M21.32,94.2c-.25,.3-.52,.58-.8,.86-.05,.05,.02,.14,.07,.09,.29-.28,.56-.57,.82-.88,.05-.06-.04-.12-.09-.07h0Z" fill="#2b303c"/><path d="M21.88,94.72c-.32,.35-.58,.74-.79,1.17-.03,.07,.07,.11,.11,.04,.2-.42,.46-.8,.77-1.14,.05-.05-.04-.12-.09-.07h0Z" fill="#2b303c"/><path d="M22.52,95.14c-.19,.29-.34,.61-.45,.95-.02,.07,.08,.11,.11,.04,.1-.33,.24-.63,.43-.92,.04-.06-.05-.13-.09-.07h0Z" fill="#2b303c"/><path d="M23.01,95.48c-.14,.26-.23,.53-.29,.83-.01,.07,.1,.08,.11,.01,.05-.28,.15-.55,.28-.8,.03-.06-.07-.1-.11-.04h0Z" fill="#2b303c"/><path d="M17.85,96.21c0,.1-.02,.2,.02,.3h0c.08,.18,.29,.24,.47,.27,.77,.16,1.54,.31,2.31,.47,.12,.03,.25,.05,.37,.07,.08,.02,.16,.03,.25,.05,.26,.05,.53,.1,.79,.15,.32,.06,.65,.12,.98,.15,.61,.07,1.24,.06,1.82-.12,.05-.01,.09-.03,.12-.07,.03-.04,.03-.1,.02-.16,0-.02,0-.04-.01-.06-.05-.26-.19-.49-.36-.69,0,.04,0,.07,0,.11,0,.06-.02,.12-.04,.17-.07,.14-.2,.25-.34,.32-.29,.16-.63,.24-.96,.2-.41-.04-.8-.24-1.19-.37-.45-.16-.92-.24-1.4-.31-.57-.08-1.15-.13-1.71-.26-.22-.05-.46-.12-.59-.3-.09-.13-.12-.29-.14-.44-.04-.44,.05-.89,.25-1.28,.11-.21,.25-.41,.35-.62,.08-.18,.14-.38,.12-.57,0-.01,0-.02,0-.04-.12,.28-.29,.53-.44,.79-.38,.68-.62,1.45-.7,2.23Z" fill="#c3cde0"/></g></g><polygon points="32.72 55.22 32.46 57.28 31.42 56.95 31.77 55.22 32.72 55.22" fill="#20242b"/><path d="M34.98,84.21c-1.1-.24-1.8-.24-2.89-.02-1.09,.22-2.8-1.14-4.47-1.21-.9-.04-1.86,.38-2.85,.64-.84,.22-1.69,.34-2.54-.05-1.82-.82-3.72,.58-3.77,.61,0-.03,.52-2.18,.44-7.23-.09-5.08,2.11-12.13,3.76-14.34,1.46-1.96,1.39-3.08,.55-5.29-.02-.06-.05-.13-.08-.2-.08-.22-.18-.45-.27-.69-.33-.82-.45-1.59-.41-2.28,.1-1.68,1.1-2.93,2.01-3.54,1.29-.85,3.33-.07,4.97,.7,1.64,.77,3.65,1.55,3.65,1.55l-.36,2.33h-.96c.38,1.57-.53,3.82-1.47,3.89-.12,0-.24,.61-.33,1.28-.05,.39-.1,.8-.13,1.13-.07,.9,1,4.27,1.88,7.49,.25,.93,.49,1.85,.67,2.69,.83,3.77,2.59,12.51,2.59,12.51Z" fill="#2b303c"/><path d="M26.19,51.34c-1.38-.08-2.24,.06-2.74,.24,.32-.4,.68-.73,1.03-.96,.14-.09,.29-.17,.44-.22,.13-.05,.26-.08,.4-.11,.09-.02,.19-.03,.28-.04,.38,.46,.58,1.09,.58,1.09Z" fill="#20242b"/><g><path d="M25.36,50.83c.15,.49,1.43,.67,2.95,.97h.02c1.5,.3,1.93-.13,.66-.72-.65-.3-.92-.63-1.04-1.02-.12-.4-.07-.86-.08-1.43l-.85-.13-.26-.04-1.44-.23s-.11,2.1,.04,2.59Z" fill="#845c4f"/><path d="M25.36,50.83c.15,.49,1.43,.67,2.95,.97h.02c-.2-.16-.55-.36-1-.54-1.16-.47-.84-1.25,0-1.46,0,0-.15-.64-.54-1.29,0-.01-.02-.03-.03-.04l-1.44-.23s-.11,2.1,.04,2.59Z" fill="#755143"/><path d="M25.45,48.19c.47,1.7,1.57,1.81,2.49,1.87-.12-.4-.07-.86-.08-1.43l-.85-.13c-.71,.1-1.56-.31-1.56-.31Z" fill="#63443b"/></g><path d="M24.76,42.67l.24,4.37c.04,.79,.46,1.46,1.06,1.87,.42,.29,.94,.44,1.49,.41,.6-.03,1.13-.28,1.53-.66,.5-.47,.8-1.15,.76-1.89l-.09-1.64-.09-1.65-.06-1.07-4.84,.26Z" fill="#845c4f"/><path d="M21.47,50.25c.35,.26,.85,.28,1.22,.06,.2-.12,.37-.31,.6-.38,.38-.12,.76,.1,1.12,.27,.36,.16,1.24,.55,1.47,.23,.3-.42-.55-1.12-.47-1.63,.04-.25,.2-.63,.32-.86,.05-.1,.08-.2,.1-.3,.07-.61-.68-1.16-.43-1.72,.04-.1,.11-.18,.19-.25,.2-.19,.47-.33,.55-.58,.1-.31-.11-.63-.11-.96,0-.54,.58-.88,1.1-1,.52-.12,1.1-.14,1.52-.47,.41-.33,.56-.96,.34-1.44l-.05,.19c.07-.29-.14-.61-.42-.73-.28-.12-.6-.09-.89-.01-.29,.08-.57,.2-.87,.26-.54,.11-1.11,0-1.66,.07s-1.15,.38-1.23,.93c-.04,.24,.03,.5-.06,.72-.25,.62-1.36,.44-1.61,1.06-.22,.55,.47,1.22,.13,1.7-.25,.35-.88,.28-1.06,.66-.11,.22,0,.48,.13,.69,.13,.2,.31,.39,.36,.63,.07,.31-.06,.63-.23,.9-.17,.27-.37,.53-.45,.84-.1,.42,.07,.89,.41,1.15Z" fill="#1a2e35"/><path d="M30.95,49.29c.14-.09,.28-.19,.42-.28,.38-.26,.77-.53,.96-.95,.21-.47,.07-1.09-.35-1.4-.08-.06-.17-.11-.27-.16,.36,.95,.31,1.64-.29,2.15-.28,.24-.42,.46-.47,.64Z" fill="#1a2e35"/><path d="M25.44,47.26c.15,.23,.23,.46,.27,.67,.05-.1,.08-.2,.1-.3,.07-.61-.68-1.16-.43-1.72,.04-.1,.11-.18,.19-.25-.39-.23-.78-.34-.78-.34-.31,.4,.09,1.07,.66,1.95Z" fill="#1e272b"/><path d="M26.27,45.21c-.44-.5-1.53-.78-1.66,.19s1.25,1.25,1.25,1.25l.42-1.44Z" fill="#845c4f"/><path d="M28.09,42.91s.56,1.54,1.65,2.22l-.09-1.65c-.47-.29-1.56-.57-1.56-.57Z" fill="#755143"/><path d="M27.92,42.72c.58,.75,1.87,1.53,2.82,1.52-.1-.62-.22-1.24-.48-1.82-.25-.58-.65-1.1-1.19-1.42s-1.25-.37-1.8-.07c0,0-.58,.18,.65,1.78Z" fill="#1a2e35"/><path d="M25.71,43.25s0,.02,0,.03c.04-.08,.11-.14,.16-.2,.06-.06,.12-.11,.19-.15,.13-.09,.26-.16,.4-.21,.07-.03,.14-.04,.21-.06,.04,0,.07-.01,.11-.02,.04,0,.08,0,.12-.01,.08-.01,.16-.01,.25-.02,.06,0,.11,0,.17,0,.03,0,.07,0,.1,0-.03-.03-.07-.06-.11-.09-.04-.03-.08-.06-.12-.07-.09-.04-.17-.08-.27-.09-.09-.02-.19-.02-.29-.02-.05,0-.1,.01-.15,.02-.02,0-.05,.01-.07,.02l-.07,.02c-.19,.07-.36,.2-.48,.36-.06,.08-.1,.17-.13,.26-.01,.05-.03,.09-.03,.15,0,.04,0,.08,0,.12Z" fill="#d55ba0"/><path d="M18.47,84.18s1.95-1.43,3.77-.61c.85,.38,1.7,.27,2.54,.05-.79-1.87-1.78-4.69-2.34-8.14-1.04-6.41,1.61-13.25,2.07-14.64,.4-1.21-.29-2.12-1.37-3.7,.91,2.34,1.03,3.47-.48,5.49-1.64,2.2-3.84,9.25-3.76,14.34,.09,5.04-.43,7.2-.44,7.23Z" fill="#20242b"/><path d="M32.72,55.22l-.61,.76s-1.54-3.57-2.42-4.4c.05,.05,1.81,1.55,2.42,2.58,.27,.46,.47,.81,.61,1.06Z" fill="#20242b"/><path d="M31.72,69.01c-1.87-1.29-4.85-3.43-5.53-4.51-1.01-1.6-1.1-4.3-2.13-5.98-.25-.4-.54-.81-.85-1.2-.02-.06-.05-.13-.08-.2-.08-.22-.18-.45-.27-.69-.33-.82-.45-1.59-.41-2.28,1.05-.2,2.49-.16,3.22,.73,1.23,1.49,1.73-1.31,1.73-1.31,2.03,1.29,2.71,4.21,2.68,4.83l-.39,.44s.07,.77,.28,1.53c-.05,.39-.1,.8-.13,1.13-.07,.9,1,4.27,1.88,7.49Z" fill="#20242b"/><g><path d="M36,69.26s-.04-.03-.06-.05c-.37-.27-.99-.87-1.51-1.38h0l-.02-.02-.5-.52-.22-.23,.1-.12,.9-1.12v-.02h.09l1.08,.14c.11,.01,.23,.03,.37,.04,.16,.01,.32,0,.47-.04,.19-.05,.43-.12,.55-.2,.1-.06,.21-.03,.27,.03,.03,.04,.05,.09,.02,.15-.06,.15-.47,.44-1.04,.54-.23,.04-.24,.13-.16,.24,.13,.16,.49,.37,.66,.47,.29,.17,1.15,.72,1.17,.85,0,.05,0,.09-.03,.12-.06,.08-.23,.09-.43-.04-.26-.16-1-.54-1.2-.5-.02,0-.04,.01-.05,.03-.08,.15,1.39,.98,1.39,.98,0,0,.28,.1,.27,.25,0,.02,0,.03-.01,.05-.16,.33-1.67-.66-1.81-.76-.03-.02-.06-.02-.08,0-.06,.03-.09,.12,0,.17,.11,.07,1.49,.79,1.33,1.12h0c-.14,.24-1.24-.8-1.61-.8-.37,0,.93,.72,.8,.96-.05,.09-.09,.15-.72-.32Z" fill="#845c4f"/><path d="M26,62.52s-.03-.04-.04-.06c0-.01,0-.02-.01-.03h0c-.02-.24-.55-2.15-1.08-4l1.79-.26,2.09-.3h.07c.08,1.38,.19,2.68,.32,2.84,.29,.34,5.41,4.72,5.62,5.1,0,.01,0,.02,0,.02-.18,.45-.44,1.04-.81,1.41-.02,.02-.03,.03-.05,.05-.18,.17-7.25-3.96-7.91-4.77Z" fill="#845c4f"/><path d="M34.41,67.81l-.5-.52c-.18,.17-7.25-3.96-7.91-4.77-.02-.02-.03-.04-.04-.06,0-.01,0-.02-.01-.03h0c-.02-.24-.55-2.15-1.08-4l1.79-.26,2.09-.3c-.38,.25-2.26,1.47-2.24,1.79,.02,.36,.42,2.16,.69,3.06s6.44,4.21,6.44,4.21v-.46s.03,.25,.14,.46c.05,.1,.11,.2,.18,.3,.08,.11,.16,.22,.25,.3,.07,.06,.15,.16,.22,.29l-.02-.02Z" fill="#755143"/></g><path d="M29.39,58.02l-4.93,1.37s-1.29-3.98-.46-5.67,3.39-1.87,4.45,.3c1.05,2.17,.95,3.99,.95,3.99Z" fill="#20242b"/></g></svg>