<svg width="480" height="480" viewBox="0 0 480 480" fill="none" xmlns="http://www.w3.org/2000/svg">
<g clip-path="url(#clip0_585_1946)">
<path d="M480 0H0V480H480V0Z" fill="white"/>
<path d="M289.867 155.761L174.473 173.332C164.458 174.857 157.941 186.614 159.918 199.592L169.026 259.409C171.002 272.388 180.723 281.672 190.737 280.148L306.131 262.577C316.146 261.052 322.663 249.295 320.687 236.316L311.578 176.499C309.602 163.521 299.882 154.236 289.867 155.761Z" stroke="#FBB87A" stroke-width="6" stroke-linecap="round" stroke-linejoin="round"/>
<path d="M306.196 175H173.804C162.314 175 153 185.736 153 198.98V260.02C153 273.264 162.314 284 173.804 284H306.196C317.686 284 327 273.264 327 260.02V198.98C327 185.736 317.686 175 306.196 175Z" fill="white" stroke="#2A2440" stroke-width="7" stroke-linecap="round" stroke-linejoin="round"/>
<path d="M288 208.327L318.726 208.069C320.92 208.051 323.029 208.664 324.59 209.773C326.151 210.882 327.035 212.397 327.049 213.984L327.307 244.758C327.32 246.345 326.461 247.874 324.919 249.009C323.377 250.145 321.278 250.793 319.084 250.811L288.358 251.069" stroke="#7B4FD4" stroke-width="7" stroke-linecap="round" stroke-linejoin="round"/>
<path d="M295.5 237C299.642 237 303 233.642 303 229.5C303 225.358 299.642 222 295.5 222C291.358 222 288 225.358 288 229.5C288 233.642 291.358 237 295.5 237Z" fill="#7B4FD4"/>
<path d="M240 424C348.248 424 436 336.248 436 228C436 119.752 348.248 32 240 32C131.752 32 44 119.752 44 228C44 336.248 131.752 424 240 424Z" stroke="#FBB87A" stroke-opacity="0.2" stroke-width="2" stroke-linecap="round"/>
<path d="M240 392C330.575 392 404 318.575 404 228C404 137.425 330.575 64 240 64C149.425 64 76 137.425 76 228C76 318.575 149.425 392 240 392Z" stroke="#7B4FD4" stroke-opacity="0.16" stroke-width="2" stroke-linecap="round"/>
<path d="M240 360C312.902 360 372 300.902 372 228C372 155.098 312.902 96 240 96C167.098 96 108 155.098 108 228C108 300.902 167.098 360 240 360Z" stroke="#7B4FD4" stroke-opacity="0.24" stroke-width="2" stroke-linecap="round"/>
</g>
<defs>
<clipPath id="clip0_585_1946">
<rect width="480" height="480" fill="white"/>
</clipPath>
</defs>
</svg>
