<?xml version="1.0" encoding="UTF-8"?>
<svg id="Lager_2" xmlns="http://www.w3.org/2000/svg" xmlns:xlink="http://www.w3.org/1999/xlink" version="1.1" viewBox="0 0 862.3 552.7">
  <!-- Generator: Adobe Illustrator 30.2.1, SVG Export Plug-In . SVG Version: 2.1.1 Build 1)  -->
  <defs>
    <style>
      .st0 {
        stroke: url(#Namnlös_övertoning_9);
        stroke-width: 7.1px;
      }

      .st0, .st1, .st2, .st3, .st4, .st5, .st6, .st7, .st8, .st9, .st10, .st11, .st12, .st13, .st14 {
        fill: none;
      }

      .st0, .st14 {
        stroke-linecap: round;
        stroke-linejoin: round;
      }

      .st1 {
        stroke: url(#Namnlös_övertoning_31);
      }

      .st1, .st2, .st3, .st4, .st5, .st6, .st7, .st8, .st9, .st10, .st11, .st12, .st13 {
        stroke-miterlimit: 10;
      }

      .st1, .st2, .st3, .st4, .st5, .st6, .st8, .st9, .st10, .st11, .st12, .st13 {
        stroke-width: .5px;
      }

      .st2 {
        stroke: url(#Namnlös_övertoning_21);
      }

      .st3 {
        stroke: url(#Namnlös_övertoning_41);
      }

      .st4 {
        stroke: url(#Namnlös_övertoning_51);
      }

      .st5 {
        stroke: url(#Namnlös_övertoning_71);
      }

      .st6 {
        stroke: url(#Namnlös_övertoning_61);
      }

      .st15 {
        fill: #636d87;
      }

      .st7 {
        stroke: url(#Namnlös_övertoning_10);
        stroke-width: 2.7px;
      }

      .st8 {
        stroke: url(#Namnlös_övertoning_2);
      }

      .st9 {
        stroke: url(#Namnlös_övertoning_5);
      }

      .st10 {
        stroke: url(#Namnlös_övertoning_7);
      }

      .st11 {
        stroke: url(#Namnlös_övertoning_3);
      }

      .st12 {
        stroke: url(#Namnlös_övertoning_4);
      }

      .st13 {
        stroke: url(#Namnlös_övertoning_6);
      }

      .st16 {
        opacity: .2;
      }

      .st17 {
        fill: url(#Namnlös_övertoning_11);
      }

      .st18 {
        fill: #d15d9d;
      }

      .st19 {
        fill: url(#Namnlös_övertoning);
      }

      .st14 {
        stroke: #636d87;
        stroke-width: 7.2px;
      }
    </style>
    <radialGradient id="Namnlös_övertoning" data-name="Namnlös övertoning" cx="493.3" cy="236.9" fx="493.3" fy="236.9" r="223.7" gradientTransform="translate(-184 -16.1) scale(1.2)" gradientUnits="userSpaceOnUse">
      <stop offset="0" stop-color="#d35c9e" stop-opacity=".2"/>
      <stop offset="1" stop-color="#c75997" stop-opacity="0"/>
    </radialGradient>
    <linearGradient id="Namnlös_övertoning_2" data-name="Namnlös övertoning 2" x1="601.6" y1="180.4" x2="601.6" y2="64.7" gradientTransform="translate(0 40)" gradientUnits="userSpaceOnUse">
      <stop offset="0" stop-color="#49485a"/>
      <stop offset=".5" stop-color="#505467" stop-opacity=".5"/>
      <stop offset="1" stop-color="#586176" stop-opacity="0"/>
    </linearGradient>
    <linearGradient id="Namnlös_övertoning_21" data-name="Namnlös övertoning 2" x1="267.9" y1="185.3" x2="267.9" xlink:href="#Namnlös_övertoning_2"/>
    <linearGradient id="Namnlös_övertoning_3" data-name="Namnlös övertoning 3" x1="658.3" y1="201.7" x2="658.3" y2="74.9" gradientTransform="translate(0 40)" gradientUnits="userSpaceOnUse">
      <stop offset="0" stop-color="#49485a"/>
      <stop offset="1" stop-color="#586176" stop-opacity="0"/>
    </linearGradient>
    <linearGradient id="Namnlös_övertoning_31" data-name="Namnlös övertoning 3" x1="211.8" y1="203.8" x2="211.8" y2="74.9" xlink:href="#Namnlös_övertoning_3"/>
    <linearGradient id="Namnlös_övertoning_4" data-name="Namnlös övertoning 4" x1="705.3" y1="215.2" x2="705.3" y2="85.1" gradientTransform="translate(0 40)" gradientUnits="userSpaceOnUse">
      <stop offset="0" stop-color="#49485a"/>
      <stop offset="1" stop-color="#586176" stop-opacity="0"/>
    </linearGradient>
    <linearGradient id="Namnlös_övertoning_41" data-name="Namnlös övertoning 4" x1="163" y1="216.3" x2="163" xlink:href="#Namnlös_övertoning_4"/>
    <linearGradient id="Namnlös_övertoning_5" data-name="Namnlös övertoning 5" x1="-5775" y1="-1127.8" x2="-5775" y2="-1248.3" gradientTransform="translate(-5507.1 -831.8) rotate(-180)" gradientUnits="userSpaceOnUse">
      <stop offset="0" stop-color="#d15d9d"/>
      <stop offset="1" stop-color="#bc6197" stop-opacity="0"/>
    </linearGradient>
    <linearGradient id="Namnlös_övertoning_51" data-name="Namnlös övertoning 5" x1="-6104.7" y1="-1129.8" x2="-6104.7" xlink:href="#Namnlös_övertoning_5"/>
    <linearGradient id="Namnlös_övertoning_6" data-name="Namnlös övertoning 6" x1="-5717.3" y1="-1109.7" x2="-5717.3" y2="-1238.2" gradientTransform="translate(-5507.1 -831.8) rotate(-180)" gradientUnits="userSpaceOnUse">
      <stop offset="0" stop-color="#d35c9e"/>
      <stop offset=".2" stop-color="#bf5591" stop-opacity=".8"/>
      <stop offset=".4" stop-color="#ae4f87" stop-opacity=".6"/>
      <stop offset=".5" stop-color="#a14b7f" stop-opacity=".5"/>
      <stop offset=".7" stop-color="#974879" stop-opacity=".4"/>
      <stop offset=".8" stop-color="#914676" stop-opacity=".3"/>
      <stop offset=".9" stop-color="#904675" stop-opacity=".3"/>
    </linearGradient>
    <linearGradient id="Namnlös_övertoning_61" data-name="Namnlös övertoning 6" x1="-6164.9" y1="-1111.2" x2="-6164.9" y2="-1238.2" xlink:href="#Namnlös_övertoning_6"/>
    <linearGradient id="Namnlös_övertoning_7" data-name="Namnlös övertoning 7" x1="-5670.2" y1="-1096.8" x2="-5670.2" y2="-1228" gradientTransform="translate(-5507.1 -831.8) rotate(-180)" gradientUnits="userSpaceOnUse">
      <stop offset="0" stop-color="#49485a"/>
      <stop offset="1" stop-color="#586176" stop-opacity="0"/>
    </linearGradient>
    <linearGradient id="Namnlös_övertoning_71" data-name="Namnlös övertoning 7" x1="-6212.5" y1="-1097.8" x2="-6212.5" xlink:href="#Namnlös_övertoning_7"/>
    <linearGradient id="Namnlös_övertoning_9" data-name="Namnlös övertoning 9" x1="437.8" y1="119.2" x2="437.8" y2="325.1" gradientTransform="translate(0 40)" gradientUnits="userSpaceOnUse">
      <stop offset="0" stop-color="#656f85" stop-opacity=".4"/>
      <stop offset=".3" stop-color="#656e85" stop-opacity=".4"/>
      <stop offset=".5" stop-color="#656e85" stop-opacity=".3"/>
      <stop offset=".7" stop-color="#666e85" stop-opacity=".1"/>
      <stop offset=".8" stop-color="#676e85" stop-opacity=".1"/>
    </linearGradient>
    <linearGradient id="Namnlös_övertoning_10" data-name="Namnlös övertoning 10" x1="437" y1="140.8" x2="437" y2="202.1" gradientTransform="translate(0 40)" gradientUnits="userSpaceOnUse">
      <stop offset="0" stop-color="#4d5366"/>
      <stop offset="1" stop-color="#434858" stop-opacity="0"/>
    </linearGradient>
    <radialGradient id="Namnlös_övertoning_11" data-name="Namnlös övertoning 11" cx="490.9" cy="254.1" fx="490.9" fy="254.1" r="76.2" gradientTransform="translate(-166.5 365.8) scale(1.2 .1)" gradientUnits="userSpaceOnUse">
      <stop offset="0" stop-color="#d35c9e" stop-opacity=".2"/>
      <stop offset="1" stop-color="#c75997" stop-opacity="0"/>
    </radialGradient>
  </defs>
  <circle class="st19" cx="425.7" cy="276.4" r="276.4"/>
  <path class="st8" d="M547.5,220.2c64.8-23.7,108-66.5,108-115.4"/>
  <path class="st2" d="M206.7,104.7c0,52.5,49.8,98,122.6,120.3"/>
  <path class="st11" d="M548.5,241.4c128-19.1,219.3-68.6,219.3-126.5"/>
  <path class="st1" d="M94.4,114.9c0,60.3,98.7,111.4,234.8,128.7"/>
  <path class="st12" d="M548.5,255c180.9-16,313.6-68.1,313.6-129.9"/>
  <path class="st3" d="M.2,125.1c0,63.2,138.6,116.2,325.8,130.9"/>
  <path class="st9" d="M329.2,296.3c-72.7,22.3-122.5,67.8-122.5,120.3"/>
  <path class="st4" d="M655.5,416.6c0-50.9-46.9-95.3-116.2-118.3"/>
  <path class="st13" d="M326,278.1c-134.5,17.7-231.6,68.4-231.6,128.3"/>
  <path class="st6" d="M767.8,406.4c0-58.2-91.8-107.7-220.4-126.7"/>
  <path class="st10" d="M326,265.3C138.8,280,.2,333,.2,396.2"/>
  <path class="st5" d="M862,396.2c0-61.8-132.6-113.9-313.6-129.9"/>
  <path class="st18" d="M494.5,302.5c-.7-4.1-.7-4.8-.4-6.9.6-4.5-.7-7.7-5.3-12.9-3-3.3-6.6-6.3-9.4-7.7-2.7-1.3-5-1.7-7.3-1.1-2.3.6-2.7.9-12.4,10.6-5.1,5.1-9.6,9.7-9.9,10.2-2.5,4-1.9,8.6,1.9,13.7,1.5,2,5.8,6.3,7.7,7.8,4.9,3.6,8.8,4.4,12.8,2.5,1.2-.6,2.2-1.6,10.2-9.5,7-7,8.9-8.7,8.8-8.2-.3,1.1-.9,2.3-2.1,3.6-1.3,1.5-1.9,2.8-1.7,3.8.3,1.6,2.9,3.5,4.5,3.3,1-.1,1.9-.9,2.3-2.1.5-1.4.6-4.6.2-6.9h0ZM480.3,307.4c-4.7,4.6-7.6,7.4-8.4,7.9-2.9,1.7-6.2,1.5-9.9-.8-4-2.5-8.4-7.2-10-10.9-.6-1.3-.6-1.6-.6-3.6,0-3.5-.1-3.4,8.7-12.2,4-4.1,7.4-7.4,7.4-7.4s.1.9.2,2.1c.3,2.8,1,5,2.5,7.2,1.4,2.1,5,5.8,7,7.2,2.8,2,6.1,3.3,8.8,3.5h1.5c0,.1-7.2,7.3-7.2,7.3h0ZM482,291c-4-.2-7.2-.7-8.1-1-.5-.2-1.6-1.8-2.5-3.8-1.7-3.5-1.9-7.4-.4-9.1,1-1.1,3.1-1.5,5.3-1,1.5.4,4.5,1.9,6.3,3.2,2.1,1.6,4.6,4.1,6,6,1.1,1.6,2.4,4,2.4,4.5,0,1.1-3.3,1.5-9,1.1h0Z"/>
  <g class="st16">
    <path class="st0" d="M437.8,162.7c-19.9,0-38.3,5.8-53.9,15.8-27.4,17.7-45.6,48.5-45.6,83.6,0,54.9,44.5,99.4,99.4,99.4s65.9-18.1,83.6-45.6c10-15.5,15.8-34,15.8-53.9,0-54.9-44.5-99.4-99.4-99.4h0Z"/>
  </g>
  <g class="st16">
    <path class="st7" d="M513.6,236.5c-10.7-31.6-40.6-54.3-75.8-54.3s-30.8,4.7-43.3,12.7c-16.5,10.7-28.9,27.3-34,46.8"/>
  </g>
  <path class="st14" d="M393.7,236.8c0-7.6,6.2-13.8,13.8-13.8h55.2c7.6,0,13.8,6.2,13.8,13.8v9.2c0,7.6-6.2,13.8-13.8,13.8h-55.2c-7.6,0-13.8-6.2-13.8-13.8v-9.2Z"/>
  <path class="st14" d="M435.1,296.6h-27.6c-7.6,0-13.8-6.2-13.8-13.8v-9.2c0-7.6,6.2-13.8,13.8-13.8h48.3"/>
  <circle class="st15" cx="412.1" cy="243.5" r="5.1"/>
  <circle class="st15" cx="412.1" cy="279.1" r="5.1"/>
  <ellipse class="st17" cx="436.8" cy="399.4" rx="131.7" ry="7.5"/>
</svg>