<?xml version="1.0" encoding="UTF-8"?><svg id="Lager_2" xmlns="http://www.w3.org/2000/svg" xmlns:xlink="http://www.w3.org/1999/xlink" viewBox="0 0 862.26 552.72"><defs><style>.cls-1{stroke:url(#Namnlös_övertoning_127);stroke-width:7.06px;}.cls-1,.cls-2{stroke-linecap:round;stroke-linejoin:round;}.cls-1,.cls-2,.cls-3,.cls-4,.cls-5,.cls-6,.cls-7,.cls-8,.cls-9{fill:none;}.cls-2{stroke:#636d87;stroke-width:7.18px;}.cls-3{stroke:url(#Namnlös_övertoning_31);}.cls-3,.cls-4,.cls-5,.cls-6,.cls-7,.cls-8,.cls-9{stroke-miterlimit:10;}.cls-3,.cls-4,.cls-5,.cls-6,.cls-8,.cls-9{stroke-width:.47px;}.cls-4{stroke:url(#Namnlös_övertoning_27);}.cls-5{stroke:url(#Namnlös_övertoning_13);}.cls-6{stroke:url(#Namnlös_övertoning_70);}.cls-10{fill:#636d87;}.cls-7{stroke:url(#Namnlös_övertoning_43);stroke-width:2.68px;}.cls-8{stroke:url(#Namnlös_övertoning_13-2);}.cls-9{stroke:url(#Namnlös_övertoning_13-3);}.cls-11{opacity:.2;}.cls-12{fill:url(#Namnlös_övertoning_19);}.cls-13{fill:url(#Namnlös_övertoning_57);}.cls-14{fill:url(#Namnlös_övertoning_60);}.cls-15{fill:#d15d9d;}</style><radialGradient id="Namnlös_övertoning_60" cx="425.54" cy="269.17" fx="425.54" fy="269.17" r="223.73" gradientTransform="translate(-99.97 -56.13) scale(1.24)" gradientUnits="userSpaceOnUse"><stop offset="0" stop-color="#d35c9e" stop-opacity=".2"/><stop offset="1" stop-color="#c75997" stop-opacity="0"/></radialGradient><linearGradient id="Namnlös_övertoning_27" x1="431.13" y1="239.93" x2="431.13" y2="104.72" gradientUnits="userSpaceOnUse"><stop offset="0" stop-color="#49485a"/><stop offset=".47" stop-color="#505467" stop-opacity=".53"/><stop offset="1" stop-color="#586176" stop-opacity="0"/></linearGradient><linearGradient id="Namnlös_övertoning_13" x1="431.13" y1="250.09" x2="431.13" y2="114.88" gradientUnits="userSpaceOnUse"><stop offset="0" stop-color="#49485a"/><stop offset="1" stop-color="#586176" stop-opacity="0"/></linearGradient><linearGradient id="Namnlös_övertoning_13-2" y1="260.29" y2="125.08" xlink:href="#Namnlös_övertoning_13"/><linearGradient id="Namnlös_övertoning_70" x1="-6638.28" y1="-1153.11" x2="-6638.28" y2="-1288.32" gradientTransform="translate(-6207.15 -871.75) rotate(-180)" gradientUnits="userSpaceOnUse"><stop offset="0" stop-color="#d15d9d"/><stop offset="1" stop-color="#bc6197" stop-opacity="0"/></linearGradient><linearGradient id="Namnlös_övertoning_31" x1="-6638.28" y1="-1142.95" x2="-6638.28" y2="-1278.16" gradientTransform="translate(-6207.15 -871.75) rotate(-180)" gradientUnits="userSpaceOnUse"><stop offset=".06" stop-color="#d35c9e"/><stop offset=".22" stop-color="#bf5591" stop-opacity=".79"/><stop offset=".38" stop-color="#ae4f87" stop-opacity=".62"/><stop offset=".53" stop-color="#a14b7f" stop-opacity=".48"/><stop offset=".68" stop-color="#974879" stop-opacity=".38"/><stop offset=".82" stop-color="#914676" stop-opacity=".32"/><stop offset=".93" stop-color="#904675" stop-opacity=".3"/></linearGradient><linearGradient id="Namnlös_övertoning_13-3" x1="-6638.28" y1="-1132.75" x2="-6638.28" y2="-1267.96" gradientTransform="translate(-6207.15 -871.75) rotate(-180)" xlink:href="#Namnlös_övertoning_13"/><radialGradient id="Namnlös_övertoning_57" cx="437.87" cy="260.65" fx="437.87" fy="260.65" r="123.36" gradientTransform="translate(14.36 8.57) scale(.96)" gradientUnits="userSpaceOnUse"><stop offset="0" stop-color="#fefdfe"/><stop offset=".98" stop-color="#fff"/></radialGradient><linearGradient id="Namnlös_övertoning_127" x1="437.8" y1="159.16" x2="437.8" y2="365.08" gradientUnits="userSpaceOnUse"><stop offset=".04" stop-color="#656f85" stop-opacity=".4"/><stop offset=".27" stop-color="#656e85" stop-opacity=".37"/><stop offset=".5" stop-color="#656e85" stop-opacity=".28"/><stop offset=".73" stop-color="#666e85" stop-opacity=".13"/><stop offset=".77" stop-color="#676e85" stop-opacity=".1"/></linearGradient><linearGradient id="Namnlös_övertoning_43" x1="437" y1="180.81" x2="437" y2="242.06" gradientUnits="userSpaceOnUse"><stop offset="0" stop-color="#4d5366"/><stop offset="1" stop-color="#434858" stop-opacity="0"/></linearGradient><radialGradient id="Namnlös_övertoning_19" cx="425.46" cy="539.82" fx="425.46" fy="539.82" r="76.17" gradientTransform="translate(-86.04 325.78) scale(1.23 .14)" gradientUnits="userSpaceOnUse"><stop offset="0" stop-color="#d35c9e" stop-opacity=".2"/><stop offset="1" stop-color="#c75997" stop-opacity="0"/></radialGradient></defs><g id="Lager_1-2"><circle class="cls-14" cx="425.68" cy="276.36" r="276.36"/><path class="cls-4" d="M206.72,104.72c0,74.55,100.47,134.98,224.4,134.98s224.4-60.43,224.4-134.98"/><path class="cls-5" d="M94.45,114.88c0,74.55,150.74,134.98,336.68,134.98s336.68-60.43,336.68-134.98"/><path class="cls-8" d="M.23,125.08c0,74.55,192.92,134.98,430.89,134.98s430.89-60.43,430.89-134.98"/><path class="cls-6" d="M655.53,416.57c0-74.55-100.47-134.98-224.4-134.98-123.94,0-224.4,60.43-224.4,134.98"/><path class="cls-3" d="M767.81,406.41c0-74.55-150.74-134.98-336.68-134.98-185.94,0-336.68,60.43-336.68,134.98"/><path class="cls-9" d="M862.02,396.21c0-74.55-192.92-134.98-430.89-134.98S.23,321.66.23,396.21"/><circle class="cls-13" cx="436.85" cy="260.06" r="119.03"/><path class="cls-15" d="M494.52,302.48c-.68-4.07-.72-4.81-.42-6.92.62-4.47-.72-7.74-5.29-12.93-2.95-3.33-6.62-6.33-9.38-7.72-2.67-1.32-5.05-1.68-7.26-1.08-2.33.62-2.71.94-12.41,10.58-5.11,5.09-9.56,9.66-9.88,10.18-2.55,3.95-1.9,8.56,1.92,13.69,1.5,2.04,5.75,6.31,7.72,7.76,4.91,3.65,8.84,4.43,12.81,2.53,1.18-.56,2.25-1.56,10.2-9.46,7-6.96,8.86-8.72,8.76-8.24-.26,1.14-.94,2.31-2.1,3.59-1.32,1.46-1.92,2.77-1.72,3.79.3,1.62,2.91,3.51,4.55,3.29,1.04-.14,1.86-.9,2.29-2.12.5-1.44.6-4.59.22-6.94ZM480.33,307.37c-4.67,4.61-7.62,7.4-8.38,7.86-2.85,1.74-6.17,1.48-9.94-.82-4.03-2.45-8.36-7.18-9.98-10.9-.56-1.3-.62-1.6-.62-3.63,0-3.49-.1-3.35,8.7-12.23,4.03-4.09,7.36-7.42,7.38-7.42s.14.92.24,2.06c.3,2.83,1.04,4.95,2.51,7.16,1.38,2.08,4.97,5.77,6.96,7.18,2.81,1.98,6.13,3.29,8.84,3.49l1.52.12-7.22,7.14ZM481.99,290.99c-3.97-.24-7.24-.66-8.08-1.04-.5-.24-1.58-1.82-2.55-3.75-1.74-3.51-1.9-7.38-.36-9.06,1.02-1.12,3.13-1.52,5.31-1,1.5.36,4.45,1.86,6.27,3.21,2.1,1.56,4.65,4.11,5.99,6.03,1.12,1.56,2.41,3.97,2.41,4.47,0,1.06-3.33,1.48-9,1.14Z"/><g class="cls-11"><path class="cls-1" d="M437.8,162.69c-19.85,0-38.33,5.82-53.85,15.84-27.42,17.7-45.58,48.53-45.58,83.59,0,54.91,44.52,99.43,99.43,99.43,35.07,0,65.89-18.15,83.59-45.58,10.02-15.52,15.84-34.01,15.84-53.85,0-54.91-44.52-99.43-99.43-99.43Z"/></g><g class="cls-11"><path class="cls-7" d="M513.57,236.48c-10.69-31.59-40.57-54.33-75.77-54.33-15.96,0-30.83,4.68-43.31,12.74-16.54,10.68-28.89,27.29-34.03,46.83"/></g><path class="cls-2" d="M393.71,236.8c0-7.62,6.17-13.79,13.79-13.79h55.17c7.62,0,13.79,6.17,13.79,13.79v9.19c0,7.62-6.17,13.79-13.79,13.79h-55.17c-7.62,0-13.79-6.17-13.79-13.79v-9.19Z"/><path class="cls-2" d="M435.08,296.56h-27.58c-7.62,0-13.79-6.17-13.79-13.79v-9.19c0-7.62,6.17-13.79,13.79-13.79h48.27"/><circle class="cls-10" cx="412.09" cy="243.47" r="5.1"/><circle class="cls-10" cx="412.09" cy="279.07" r="5.1"/><ellipse class="cls-12" cx="436.79" cy="399.44" rx="131.67" ry="7.51"/></g></svg>